<mxfile host="app.diagrams.net" modified="2021-06-04T05:03:22.114Z" agent="5.0 (Windows NT 10.0; Win64; x64) AppleWebKit/537.36 (KHTML, like Gecko) Chrome/88.0.4324.182 Safari/537.36" etag="sAG7eLFx0AZW1Zr5VzAo" version="14.7.5" type="github">
  <diagram id="T-Ycm0EtmgFF6gQNpjKh" name="Page-1">
    <mxGraphModel dx="1204" dy="745" grid="1" gridSize="10" guides="1" tooltips="1" connect="1" arrows="1" fold="1" page="1" pageScale="1" pageWidth="3300" pageHeight="4681" math="0" shadow="0">
      <root>
        <mxCell id="0" />
        <mxCell id="1" parent="0" />
        <mxCell id="XgvqZKyALqiNx7xIEqGi-3" value="" style="edgeStyle=orthogonalEdgeStyle;rounded=0;orthogonalLoop=1;jettySize=auto;html=1;" edge="1" parent="1" source="XgvqZKyALqiNx7xIEqGi-1" target="XgvqZKyALqiNx7xIEqGi-2">
          <mxGeometry relative="1" as="geometry" />
        </mxCell>
        <mxCell id="XgvqZKyALqiNx7xIEqGi-1" value="sub_sort_menu(header, data, mode)" style="ellipse;whiteSpace=wrap;html=1;" vertex="1" parent="1">
          <mxGeometry x="790" y="130" width="140" height="110" as="geometry" />
        </mxCell>
        <mxCell id="XgvqZKyALqiNx7xIEqGi-5" value="" style="edgeStyle=orthogonalEdgeStyle;rounded=0;orthogonalLoop=1;jettySize=auto;html=1;" edge="1" parent="1" source="XgvqZKyALqiNx7xIEqGi-2" target="XgvqZKyALqiNx7xIEqGi-4">
          <mxGeometry relative="1" as="geometry" />
        </mxCell>
        <mxCell id="XgvqZKyALqiNx7xIEqGi-2" value="sub_menu = [&quot;Ascending&quot;, &quot;Descending&quot;]" style="rounded=1;whiteSpace=wrap;html=1;" vertex="1" parent="1">
          <mxGeometry x="745" y="310" width="230" height="40" as="geometry" />
        </mxCell>
        <mxCell id="XgvqZKyALqiNx7xIEqGi-7" value="" style="edgeStyle=orthogonalEdgeStyle;rounded=0;orthogonalLoop=1;jettySize=auto;html=1;" edge="1" parent="1" source="XgvqZKyALqiNx7xIEqGi-4" target="XgvqZKyALqiNx7xIEqGi-6">
          <mxGeometry relative="1" as="geometry" />
        </mxCell>
        <mxCell id="XgvqZKyALqiNx7xIEqGi-4" value="title = &quot;You have chosen &quot; + header + &quot;: &quot;" style="rounded=1;whiteSpace=wrap;html=1;" vertex="1" parent="1">
          <mxGeometry x="745" y="430" width="230" height="40" as="geometry" />
        </mxCell>
        <mxCell id="XgvqZKyALqiNx7xIEqGi-9" value="" style="edgeStyle=orthogonalEdgeStyle;rounded=0;orthogonalLoop=1;jettySize=auto;html=1;" edge="1" parent="1" source="XgvqZKyALqiNx7xIEqGi-6" target="XgvqZKyALqiNx7xIEqGi-8">
          <mxGeometry relative="1" as="geometry" />
        </mxCell>
        <mxCell id="XgvqZKyALqiNx7xIEqGi-6" value="default.print_title(title)" style="rounded=1;whiteSpace=wrap;html=1;" vertex="1" parent="1">
          <mxGeometry x="745" y="550" width="230" height="40" as="geometry" />
        </mxCell>
        <mxCell id="XgvqZKyALqiNx7xIEqGi-11" value="" style="edgeStyle=orthogonalEdgeStyle;rounded=0;orthogonalLoop=1;jettySize=auto;html=1;" edge="1" parent="1" source="XgvqZKyALqiNx7xIEqGi-8" target="XgvqZKyALqiNx7xIEqGi-10">
          <mxGeometry relative="1" as="geometry" />
        </mxCell>
        <mxCell id="XgvqZKyALqiNx7xIEqGi-8" value="default.general_menu(sub_menu)" style="rounded=1;whiteSpace=wrap;html=1;" vertex="1" parent="1">
          <mxGeometry x="745" y="670" width="230" height="40" as="geometry" />
        </mxCell>
        <mxCell id="XgvqZKyALqiNx7xIEqGi-13" value="" style="edgeStyle=orthogonalEdgeStyle;rounded=0;orthogonalLoop=1;jettySize=auto;html=1;" edge="1" parent="1" source="XgvqZKyALqiNx7xIEqGi-10" target="XgvqZKyALqiNx7xIEqGi-12">
          <mxGeometry relative="1" as="geometry" />
        </mxCell>
        <mxCell id="XgvqZKyALqiNx7xIEqGi-10" value="PRINT(&quot;Please Select: &quot;)" style="rounded=1;whiteSpace=wrap;html=1;" vertex="1" parent="1">
          <mxGeometry x="745" y="790" width="230" height="40" as="geometry" />
        </mxCell>
        <mxCell id="XgvqZKyALqiNx7xIEqGi-15" value="" style="edgeStyle=orthogonalEdgeStyle;rounded=0;orthogonalLoop=1;jettySize=auto;html=1;" edge="1" parent="1" source="XgvqZKyALqiNx7xIEqGi-12" target="XgvqZKyALqiNx7xIEqGi-14">
          <mxGeometry relative="1" as="geometry" />
        </mxCell>
        <mxCell id="XgvqZKyALqiNx7xIEqGi-12" value="READ choice" style="shape=parallelogram;perimeter=parallelogramPerimeter;whiteSpace=wrap;html=1;fixedSize=1;" vertex="1" parent="1">
          <mxGeometry x="745" y="910" width="229" height="50" as="geometry" />
        </mxCell>
        <mxCell id="XgvqZKyALqiNx7xIEqGi-19" style="edgeStyle=orthogonalEdgeStyle;rounded=0;orthogonalLoop=1;jettySize=auto;html=1;" edge="1" parent="1" source="XgvqZKyALqiNx7xIEqGi-14" target="XgvqZKyALqiNx7xIEqGi-17">
          <mxGeometry relative="1" as="geometry" />
        </mxCell>
        <mxCell id="XgvqZKyALqiNx7xIEqGi-29" style="edgeStyle=orthogonalEdgeStyle;rounded=0;orthogonalLoop=1;jettySize=auto;html=1;exitX=1;exitY=0.5;exitDx=0;exitDy=0;entryX=1;entryY=0.5;entryDx=0;entryDy=0;" edge="1" parent="1" source="XgvqZKyALqiNx7xIEqGi-14" target="XgvqZKyALqiNx7xIEqGi-6">
          <mxGeometry relative="1" as="geometry">
            <Array as="points">
              <mxPoint x="1040" y="1090" />
              <mxPoint x="1040" y="570" />
            </Array>
          </mxGeometry>
        </mxCell>
        <mxCell id="XgvqZKyALqiNx7xIEqGi-14" value="choice == &#39;1&#39; or choice == &#39;2&#39;" style="rhombus;whiteSpace=wrap;html=1;" vertex="1" parent="1">
          <mxGeometry x="762.5" y="1040" width="195" height="100" as="geometry" />
        </mxCell>
        <mxCell id="XgvqZKyALqiNx7xIEqGi-25" value="" style="edgeStyle=orthogonalEdgeStyle;rounded=0;orthogonalLoop=1;jettySize=auto;html=1;" edge="1" parent="1" source="XgvqZKyALqiNx7xIEqGi-17" target="XgvqZKyALqiNx7xIEqGi-22">
          <mxGeometry relative="1" as="geometry" />
        </mxCell>
        <mxCell id="XgvqZKyALqiNx7xIEqGi-28" style="edgeStyle=orthogonalEdgeStyle;rounded=0;orthogonalLoop=1;jettySize=auto;html=1;entryX=0;entryY=0.5;entryDx=0;entryDy=0;" edge="1" parent="1" source="XgvqZKyALqiNx7xIEqGi-17" target="XgvqZKyALqiNx7xIEqGi-18">
          <mxGeometry relative="1" as="geometry" />
        </mxCell>
        <mxCell id="XgvqZKyALqiNx7xIEqGi-17" value="choice == &#39;1&#39;" style="rhombus;whiteSpace=wrap;html=1;" vertex="1" parent="1">
          <mxGeometry x="630" y="1200" width="110" height="100" as="geometry" />
        </mxCell>
        <mxCell id="XgvqZKyALqiNx7xIEqGi-24" value="" style="edgeStyle=orthogonalEdgeStyle;rounded=0;orthogonalLoop=1;jettySize=auto;html=1;" edge="1" parent="1" source="XgvqZKyALqiNx7xIEqGi-18" target="XgvqZKyALqiNx7xIEqGi-23">
          <mxGeometry relative="1" as="geometry" />
        </mxCell>
        <mxCell id="XgvqZKyALqiNx7xIEqGi-18" value="choice == &#39;2&#39;" style="rhombus;whiteSpace=wrap;html=1;" vertex="1" parent="1">
          <mxGeometry x="974" y="1200" width="110" height="100" as="geometry" />
        </mxCell>
        <mxCell id="XgvqZKyALqiNx7xIEqGi-21" value="Return sequence" style="ellipse;whiteSpace=wrap;html=1;" vertex="1" parent="1">
          <mxGeometry x="815" y="1460" width="90" height="60" as="geometry" />
        </mxCell>
        <mxCell id="XgvqZKyALqiNx7xIEqGi-26" style="edgeStyle=orthogonalEdgeStyle;rounded=0;orthogonalLoop=1;jettySize=auto;html=1;entryX=0;entryY=0.5;entryDx=0;entryDy=0;" edge="1" parent="1" source="XgvqZKyALqiNx7xIEqGi-22" target="XgvqZKyALqiNx7xIEqGi-21">
          <mxGeometry relative="1" as="geometry">
            <Array as="points">
              <mxPoint x="685" y="1490" />
            </Array>
          </mxGeometry>
        </mxCell>
        <mxCell id="XgvqZKyALqiNx7xIEqGi-22" value="sequence = default.sort_data(data, header, 1, mode)" style="rounded=1;whiteSpace=wrap;html=1;" vertex="1" parent="1">
          <mxGeometry x="570" y="1330" width="230" height="40" as="geometry" />
        </mxCell>
        <mxCell id="XgvqZKyALqiNx7xIEqGi-27" style="edgeStyle=orthogonalEdgeStyle;rounded=0;orthogonalLoop=1;jettySize=auto;html=1;entryX=1;entryY=0.5;entryDx=0;entryDy=0;" edge="1" parent="1" source="XgvqZKyALqiNx7xIEqGi-23" target="XgvqZKyALqiNx7xIEqGi-21">
          <mxGeometry relative="1" as="geometry">
            <Array as="points">
              <mxPoint x="1029" y="1490" />
            </Array>
          </mxGeometry>
        </mxCell>
        <mxCell id="XgvqZKyALqiNx7xIEqGi-23" value="sequence = default.sort_data(data, header, 0, mode)" style="rounded=1;whiteSpace=wrap;html=1;" vertex="1" parent="1">
          <mxGeometry x="914" y="1330" width="230" height="40" as="geometry" />
        </mxCell>
        <mxCell id="XgvqZKyALqiNx7xIEqGi-30" value="False" style="text;html=1;align=center;verticalAlign=middle;resizable=0;points=[];autosize=1;strokeColor=none;" vertex="1" parent="1">
          <mxGeometry x="958" y="1070" width="40" height="20" as="geometry" />
        </mxCell>
        <mxCell id="XgvqZKyALqiNx7xIEqGi-31" value="False" style="text;html=1;align=center;verticalAlign=middle;resizable=0;points=[];autosize=1;strokeColor=none;" vertex="1" parent="1">
          <mxGeometry x="740" y="1230" width="40" height="20" as="geometry" />
        </mxCell>
        <mxCell id="XgvqZKyALqiNx7xIEqGi-32" value="True" style="text;html=1;align=center;verticalAlign=middle;resizable=0;points=[];autosize=1;strokeColor=none;" vertex="1" parent="1">
          <mxGeometry x="723" y="1070" width="40" height="20" as="geometry" />
        </mxCell>
        <mxCell id="XgvqZKyALqiNx7xIEqGi-33" value="True" style="text;html=1;align=center;verticalAlign=middle;resizable=0;points=[];autosize=1;strokeColor=none;" vertex="1" parent="1">
          <mxGeometry x="683" y="1300" width="40" height="20" as="geometry" />
        </mxCell>
        <mxCell id="XgvqZKyALqiNx7xIEqGi-34" value="True" style="text;html=1;align=center;verticalAlign=middle;resizable=0;points=[];autosize=1;strokeColor=none;" vertex="1" parent="1">
          <mxGeometry x="1030" y="1300" width="40" height="20" as="geometry" />
        </mxCell>
      </root>
    </mxGraphModel>
  </diagram>
</mxfile>
